<mxfile host="Electron" agent="Mozilla/5.0 (Macintosh; Intel Mac OS X 10_15_7) AppleWebKit/537.36 (KHTML, like Gecko) draw.io/24.7.17 Chrome/128.0.6613.36 Electron/32.0.1 Safari/537.36" version="24.7.17">
  <diagram name="Page-1" id="RmJcOglXxqEoMs3buLcB">
    <mxGraphModel dx="1026" dy="651" grid="1" gridSize="10" guides="1" tooltips="1" connect="1" arrows="1" fold="1" page="1" pageScale="1" pageWidth="850" pageHeight="1100" math="0" shadow="0">
      <root>
        <mxCell id="0" />
        <mxCell id="1" parent="0" />
        <mxCell id="Ay8H7dWzE45f6VNOiFGu-14" style="edgeStyle=orthogonalEdgeStyle;rounded=0;orthogonalLoop=1;jettySize=auto;html=1;exitX=0.5;exitY=0.5;exitDx=0;exitDy=0;exitPerimeter=0;entryX=0;entryY=0.5;entryDx=0;entryDy=0;" edge="1" parent="1" source="Ay8H7dWzE45f6VNOiFGu-1" target="Ay8H7dWzE45f6VNOiFGu-13">
          <mxGeometry relative="1" as="geometry" />
        </mxCell>
        <mxCell id="Ay8H7dWzE45f6VNOiFGu-15" value="subscribe" style="edgeLabel;html=1;align=center;verticalAlign=middle;resizable=0;points=[];" vertex="1" connectable="0" parent="Ay8H7dWzE45f6VNOiFGu-14">
          <mxGeometry x="0.2083" y="2" relative="1" as="geometry">
            <mxPoint x="1" as="offset" />
          </mxGeometry>
        </mxCell>
        <mxCell id="Ay8H7dWzE45f6VNOiFGu-1" value="User" style="shape=umlActor;verticalLabelPosition=bottom;verticalAlign=top;html=1;outlineConnect=0;" vertex="1" parent="1">
          <mxGeometry x="130" y="300" width="30" height="60" as="geometry" />
        </mxCell>
        <mxCell id="Ay8H7dWzE45f6VNOiFGu-7" style="edgeStyle=orthogonalEdgeStyle;rounded=0;orthogonalLoop=1;jettySize=auto;html=1;exitX=1;exitY=0.5;exitDx=0;exitDy=0;exitPerimeter=0;entryX=0;entryY=0.5;entryDx=0;entryDy=0;" edge="1" parent="1" source="Ay8H7dWzE45f6VNOiFGu-4" target="Ay8H7dWzE45f6VNOiFGu-5">
          <mxGeometry relative="1" as="geometry" />
        </mxCell>
        <mxCell id="Ay8H7dWzE45f6VNOiFGu-11" value="GET/POST" style="edgeLabel;html=1;align=center;verticalAlign=middle;resizable=0;points=[];" vertex="1" connectable="0" parent="Ay8H7dWzE45f6VNOiFGu-7">
          <mxGeometry x="0.1429" y="3" relative="1" as="geometry">
            <mxPoint x="-7" y="3" as="offset" />
          </mxGeometry>
        </mxCell>
        <mxCell id="Ay8H7dWzE45f6VNOiFGu-4" value="Lambda Function" style="sketch=0;points=[[0,0,0],[0.25,0,0],[0.5,0,0],[0.75,0,0],[1,0,0],[0,1,0],[0.25,1,0],[0.5,1,0],[0.75,1,0],[1,1,0],[0,0.25,0],[0,0.5,0],[0,0.75,0],[1,0.25,0],[1,0.5,0],[1,0.75,0]];outlineConnect=0;fontColor=#232F3E;fillColor=#ED7100;strokeColor=#ffffff;dashed=0;verticalLabelPosition=bottom;verticalAlign=top;align=center;html=1;fontSize=12;fontStyle=0;aspect=fixed;shape=mxgraph.aws4.resourceIcon;resIcon=mxgraph.aws4.lambda;" vertex="1" parent="1">
          <mxGeometry x="290" y="291" width="78" height="78" as="geometry" />
        </mxCell>
        <mxCell id="Ay8H7dWzE45f6VNOiFGu-16" style="edgeStyle=orthogonalEdgeStyle;rounded=0;orthogonalLoop=1;jettySize=auto;html=1;exitX=0.5;exitY=0;exitDx=0;exitDy=0;entryX=1;entryY=0.5;entryDx=0;entryDy=0;" edge="1" parent="1" source="Ay8H7dWzE45f6VNOiFGu-5" target="Ay8H7dWzE45f6VNOiFGu-13">
          <mxGeometry relative="1" as="geometry" />
        </mxCell>
        <mxCell id="Ay8H7dWzE45f6VNOiFGu-17" value="push" style="edgeLabel;html=1;align=center;verticalAlign=middle;resizable=0;points=[];" vertex="1" connectable="0" parent="Ay8H7dWzE45f6VNOiFGu-16">
          <mxGeometry x="-0.6322" relative="1" as="geometry">
            <mxPoint y="-12" as="offset" />
          </mxGeometry>
        </mxCell>
        <mxCell id="Ay8H7dWzE45f6VNOiFGu-5" value="Fast API&lt;div&gt;HTTP&lt;/div&gt;" style="rounded=1;whiteSpace=wrap;html=1;" vertex="1" parent="1">
          <mxGeometry x="480" y="300" width="120" height="60" as="geometry" />
        </mxCell>
        <mxCell id="Ay8H7dWzE45f6VNOiFGu-6" style="edgeStyle=orthogonalEdgeStyle;rounded=0;orthogonalLoop=1;jettySize=auto;html=1;exitX=0.5;exitY=0.5;exitDx=0;exitDy=0;exitPerimeter=0;entryX=0;entryY=0.5;entryDx=0;entryDy=0;entryPerimeter=0;" edge="1" parent="1" source="Ay8H7dWzE45f6VNOiFGu-1" target="Ay8H7dWzE45f6VNOiFGu-4">
          <mxGeometry relative="1" as="geometry" />
        </mxCell>
        <mxCell id="Ay8H7dWzE45f6VNOiFGu-10" value="messages" style="edgeLabel;html=1;align=center;verticalAlign=middle;resizable=0;points=[];" vertex="1" connectable="0" parent="Ay8H7dWzE45f6VNOiFGu-6">
          <mxGeometry x="-0.0609" relative="1" as="geometry">
            <mxPoint as="offset" />
          </mxGeometry>
        </mxCell>
        <mxCell id="Ay8H7dWzE45f6VNOiFGu-8" value="DynamoDB" style="outlineConnect=0;dashed=0;verticalLabelPosition=bottom;verticalAlign=top;align=center;html=1;shape=mxgraph.aws3.dynamo_db;fillColor=#2E73B8;gradientColor=none;" vertex="1" parent="1">
          <mxGeometry x="710" y="289.5" width="72" height="81" as="geometry" />
        </mxCell>
        <mxCell id="Ay8H7dWzE45f6VNOiFGu-9" style="edgeStyle=orthogonalEdgeStyle;rounded=0;orthogonalLoop=1;jettySize=auto;html=1;exitX=1;exitY=0.5;exitDx=0;exitDy=0;entryX=0;entryY=0.5;entryDx=0;entryDy=0;entryPerimeter=0;" edge="1" parent="1" source="Ay8H7dWzE45f6VNOiFGu-5" target="Ay8H7dWzE45f6VNOiFGu-8">
          <mxGeometry relative="1" as="geometry" />
        </mxCell>
        <mxCell id="Ay8H7dWzE45f6VNOiFGu-12" value="messages" style="edgeLabel;html=1;align=center;verticalAlign=middle;resizable=0;points=[];" vertex="1" connectable="0" parent="Ay8H7dWzE45f6VNOiFGu-9">
          <mxGeometry x="-0.0667" y="3" relative="1" as="geometry">
            <mxPoint y="3" as="offset" />
          </mxGeometry>
        </mxCell>
        <mxCell id="Ay8H7dWzE45f6VNOiFGu-13" value="Ably&lt;div&gt;WSS&lt;/div&gt;" style="rounded=1;whiteSpace=wrap;html=1;" vertex="1" parent="1">
          <mxGeometry x="269" y="160" width="120" height="60" as="geometry" />
        </mxCell>
      </root>
    </mxGraphModel>
  </diagram>
</mxfile>
